<svg width="108" height="108" viewBox="0 0 108 108" fill="none" xmlns="http://www.w3.org/2000/svg">
<path d="M108 54C108 68.9117 101.956 82.4117 92.1838 92.1838C82.4117 101.956 68.9117 108 54 108C39.0883 108 25.5883 101.956 15.8162 92.1838C6.04416 82.4117 0 68.9117 0 54C0 39.0883 6.04416 25.5883 15.8162 15.8162C25.5883 6.04416 39.0883 0 54 0C68.9117 0 82.4117 6.04416 92.1838 15.8162C101.956 25.5883 108 39.0883 108 54Z" fill="#E5E5E5"/>
<path d="M107.5 54C107.5 68.7738 101.512 82.1481 91.8302 91.8302C82.1481 101.512 68.7738 107.5 54 107.5C39.2262 107.5 25.8519 101.512 16.1698 91.8302C6.48764 82.1481 0.5 68.7738 0.5 54C0.5 39.2262 6.48764 25.8519 16.1698 16.1698C25.8519 6.48764 39.2262 0.5 54 0.5C68.7738 0.5 82.1481 6.48764 91.8302 16.1698C101.512 25.8519 107.5 39.2262 107.5 54Z" stroke="black" stroke-opacity="0.3"/>
</svg>
